<?xml version="1.0" encoding="UTF-8" standalone="no" ?>
<!DOCTYPE svg PUBLIC "-//W3C//DTD SVG 1.1//EN" "http://www.w3.org/Graphics/SVG/1.1/DTD/svg11.dtd">
<svg xmlns="http://www.w3.org/2000/svg" xmlns:xlink="http://www.w3.org/1999/xlink" version="1.1" width="2000" height="2000" viewBox="0 0 2000 2000" xml:space="preserve">
<desc>Created with Fabric.js 5.2.4</desc>
<defs>
</defs>
<rect x="0" y="0" width="100%" height="100%" fill="transparent"></rect>
<g transform="matrix(1 0 0 1 1000 1000)" id="71758c7f-0a44-436c-bae2-6024f64d33aa"  >
<rect style="stroke: none; stroke-width: 1; stroke-dasharray: none; stroke-linecap: butt; stroke-dashoffset: 0; stroke-linejoin: miter; stroke-miterlimit: 4; fill: rgb(255,255,255); fill-rule: nonzero; opacity: 1; visibility: hidden;" vector-effect="non-scaling-stroke"  x="-1000" y="-1000" rx="0" ry="0" width="2000" height="2000" />
</g>
<g transform="matrix(Infinity NaN NaN Infinity 0 0)" id="f5c91ba5-b14f-4313-81d0-8f37c3dcb4a8"  >
</g>
<g transform="matrix(20.82 0 0 16.21 1005.64 991.8)" id="c2f1f5d2-a2cb-4743-93e7-5ba9a6439deb"  >
<path style="stroke: rgb(0,0,0); stroke-width: 0; stroke-dasharray: none; stroke-linecap: butt; stroke-dashoffset: 0; stroke-linejoin: miter; stroke-miterlimit: 4; fill: rgb(240,232,232); fill-rule: nonzero; opacity: 1;" vector-effect="non-scaling-stroke"  transform=" translate(-47.52, -61.44)" d="M 47.48 108.43 C 49.69 108.43 51.48 110.22000000000001 51.48 112.43 C 51.48 114.64 49.69 116.43 47.48 116.43 C 45.269999999999996 116.43 43.48 114.64 43.48 112.43 C 43.48 110.22 45.27 108.43 47.48 108.43 L 47.48 108.43 z M 21.64 67.48 C 21.580000000000002 67.36 21.51 67.25 21.43 67.14 C 21.08 66.57000000000001 20.73 66 20.38 65.35 C 20.029999999999998 64.64999999999999 19.68 63.989999999999995 19.369999999999997 63.379999999999995 C 19.06 62.72 18.759999999999998 62.019999999999996 18.499999999999996 61.31999999999999 C 18.279999999999998 60.709999999999994 18.019999999999996 60.00999999999999 17.759999999999998 59.17999999999999 C 17.369999999999997 57.99999999999999 16.27 57.25999999999999 15.089999999999998 57.25999999999999 L 7.52 57.25999999999999 C 7.26 57.25999999999999 7 57.21999999999999 6.819999999999999 57.12999999999999 C 6.6499999999999995 57.039999999999985 6.43 56.90999999999999 6.299999999999999 56.73999999999999 C 6.129999999999999 56.55999999999999 5.989999999999999 56.389999999999986 5.909999999999999 56.219999999999985 C 5.819999999999999 56.04999999999998 5.779999999999999 55.77999999999999 5.779999999999999 55.51999999999998 L 5.779999999999999 45.97999999999998 C 5.779999999999999 45.719999999999985 5.819999999999999 45.499999999999986 5.869999999999999 45.319999999999986 C 5.959999999999999 45.139999999999986 6.089999999999999 44.929999999999986 6.31 44.70999999999999 C 6.4799999999999995 44.539999999999985 6.659999999999999 44.399999999999984 6.83 44.359999999999985 C 7.01 44.26999999999998 7.2700000000000005 44.22999999999998 7.53 44.22999999999998 L 14.48 44.22999999999998 C 15.88 44.22999999999998 17.02 43.219999999999985 17.28 41.90999999999998 C 17.450000000000003 41.16999999999998 17.630000000000003 40.469999999999985 17.8 39.84999999999998 C 18.02 39.14999999999998 18.240000000000002 38.48999999999998 18.5 37.78999999999998 C 18.76 37.12999999999998 19.02 36.42999999999998 19.37 35.77999999999998 C 19.68 35.07999999999998 20.03 34.46999999999998 20.330000000000002 33.85999999999998 C 20.94 32.71999999999998 20.720000000000002 31.40999999999998 19.85 30.539999999999978 L 14.430000000000001 25.06999999999998 C 14.390000000000002 25.02999999999998 14.390000000000002 25.02999999999998 14.340000000000002 25.02999999999998 C 14.170000000000002 24.859999999999978 14.030000000000001 24.67999999999998 13.950000000000001 24.50999999999998 C 13.860000000000001 24.33999999999998 13.860000000000001 24.15999999999998 13.860000000000001 23.89999999999998 C 13.860000000000001 23.63999999999998 13.9 23.41999999999998 13.990000000000002 23.23999999999998 C 14.080000000000002 23.019999999999982 14.210000000000003 22.84999999999998 14.430000000000001 22.62999999999998 L 21.12 15.97999999999998 C 21.34 15.75999999999998 21.51 15.629999999999981 21.73 15.539999999999981 C 21.91 15.449999999999982 22.12 15.40999999999998 22.39 15.40999999999998 C 22.650000000000002 15.40999999999998 22.87 15.44999999999998 23.05 15.539999999999981 C 23.23 15.629999999999981 23.44 15.759999999999982 23.62 15.929999999999982 L 23.66 15.929999999999982 L 28.6 20.869999999999983 C 29.560000000000002 21.829999999999984 31.090000000000003 21.959999999999983 32.19 21.179999999999982 C 32.76 20.82999999999998 33.33 20.479999999999983 33.98 20.12999999999998 C 34.68 19.77999999999998 35.339999999999996 19.429999999999982 35.949999999999996 19.11999999999998 C 36.60999999999999 18.80999999999998 37.309999999999995 18.50999999999998 38.01 18.24999999999998 C 38.62 18.02999999999998 39.32 17.76999999999998 40.15 17.50999999999998 C 41.33 17.11999999999998 42.07 16.019999999999982 42.07 14.83999999999998 L 42.07 7.26 C 42.07 7 42.11 6.74 42.2 6.56 C 42.290000000000006 6.39 42.42 6.21 42.550000000000004 6.039999999999999 C 42.730000000000004 5.869999999999999 42.900000000000006 5.7299999999999995 43.07000000000001 5.6899999999999995 C 43.24000000000001 5.6 43.510000000000005 5.56 43.77000000000001 5.56 L 50.49000000000001 5.56 L 50.57000000000001 5.56 L 51.260000000000005 5.56 C 51.52 5.56 51.78000000000001 5.6 51.96000000000001 5.6899999999999995 C 52.13000000000001 5.7299999999999995 52.31000000000001 5.869999999999999 52.48000000000001 6.039999999999999 C 52.610000000000014 6.209999999999999 52.74000000000001 6.389999999999999 52.83000000000001 6.559999999999999 C 52.920000000000016 6.729999999999999 52.960000000000015 6.999999999999999 52.960000000000015 7.259999999999999 L 52.960000000000015 14.829999999999998 C 52.960000000000015 16.009999999999998 53.70000000000002 17.099999999999998 54.88000000000002 17.5 C 55.710000000000015 17.76 56.41000000000002 18.02 57.02000000000002 18.24 C 57.72000000000002 18.5 58.420000000000016 18.81 59.08000000000002 19.11 C 59.69000000000002 19.419999999999998 60.35000000000002 19.77 61.05000000000002 20.12 C 61.710000000000015 20.470000000000002 62.27000000000002 20.82 62.84000000000002 21.17 C 63.93000000000002 21.96 65.46000000000002 21.830000000000002 66.43000000000002 20.860000000000003 L 71.37000000000002 15.920000000000002 L 71.41000000000003 15.920000000000002 C 71.58000000000003 15.750000000000002 71.80000000000003 15.610000000000001 71.98000000000002 15.530000000000001 C 72.15000000000002 15.440000000000001 72.37000000000002 15.4 72.64000000000001 15.4 C 72.90000000000002 15.4 73.12000000000002 15.44 73.30000000000001 15.530000000000001 C 73.52000000000001 15.620000000000001 73.69000000000001 15.750000000000002 73.91000000000001 15.97 L 80.60000000000001 22.62 C 80.82000000000001 22.84 80.95 23.01 81.04 23.23 C 81.13000000000001 23.400000000000002 81.17 23.62 81.17 23.89 C 81.17 24.150000000000002 81.17 24.330000000000002 81.08 24.5 C 80.99 24.68 80.86 24.85 80.69 25.02 C 80.64999999999999 25.02 80.64999999999999 25.02 80.6 25.06 L 75.17999999999999 30.529999999999998 C 74.30999999999999 31.4 74.08999999999999 32.72 74.69999999999999 33.849999999999994 C 75.00999999999999 34.459999999999994 75.35999999999999 35.06999999999999 75.65999999999998 35.769999999999996 C 76.00999999999998 36.42999999999999 76.26999999999998 37.129999999999995 76.52999999999999 37.779999999999994 C 76.78999999999999 38.48 77.00999999999999 39.13999999999999 77.22999999999999 39.839999999999996 C 77.39999999999999 40.449999999999996 77.57999999999998 41.15 77.74999999999999 41.9 C 78.00999999999999 43.21 79.14999999999999 44.22 80.54999999999998 44.22 L 87.49999999999999 44.22 C 87.75999999999999 44.22 88.01999999999998 44.26 88.19999999999999 44.35 C 88.36999999999999 44.39 88.54999999999998 44.52 88.71999999999998 44.7 C 88.93999999999998 44.92 89.06999999999998 45.14 89.15999999999998 45.31 C 89.19999999999999 45.480000000000004 89.24999999999999 45.7 89.24999999999999 45.97 L 89.24999999999999 55.51 C 89.24999999999999 55.769999999999996 89.20999999999998 56.03 89.11999999999999 56.21 C 89.02999999999999 56.39 88.89999999999999 56.56 88.72999999999999 56.730000000000004 C 88.6 56.900000000000006 88.38 57.040000000000006 88.21 57.120000000000005 C 88.02999999999999 57.21000000000001 87.77 57.25000000000001 87.50999999999999 57.25000000000001 L 79.94 57.25000000000001 C 78.75999999999999 57.25000000000001 77.67 57.99000000000001 77.27 59.17000000000001 C 77.00999999999999 60.00000000000001 76.75 60.70000000000001 76.53 61.31000000000001 C 76.27 62.01000000000001 75.96000000000001 62.71000000000001 75.66 63.37000000000001 C 75.35 63.98000000000001 75 64.64000000000001 74.64999999999999 65.34000000000002 C 74.3 66.00000000000001 73.94999999999999 66.57000000000002 73.6 67.13000000000002 C 73.52 67.24000000000002 73.44999999999999 67.35000000000002 73.39 67.47000000000003 L 80.01 67.47000000000003 C 80.29 66.91000000000003 80.57000000000001 66.31000000000003 80.86 65.69000000000003 C 81.21 64.90000000000002 81.56 64.12000000000003 81.87 63.33000000000003 C 81.91000000000001 63.200000000000024 82 63.020000000000024 82.05000000000001 62.89000000000003 L 87.65 62.89000000000003 C 88.66000000000001 62.89000000000003 89.62 62.72000000000003 90.49000000000001 62.370000000000026 C 91.36000000000001 62.020000000000024 92.2 61.450000000000024 92.9 60.75000000000003 C 93.60000000000001 60.050000000000026 94.17 59.260000000000026 94.52000000000001 58.34000000000003 C 94.87 57.42000000000003 95.04 56.50000000000003 95.04 55.50000000000003 L 95.04 45.97000000000003 C 95.04 45.010000000000026 94.82000000000001 44.050000000000026 94.47000000000001 43.17000000000003 C 94.12000000000002 42.30000000000003 93.60000000000001 41.51000000000003 92.90000000000002 40.81000000000003 L 92.86000000000001 40.77000000000003 C 92.16000000000001 40.07000000000003 91.37000000000002 39.50000000000003 90.50000000000001 39.150000000000034 C 89.63000000000001 38.76000000000003 88.66000000000001 38.580000000000034 87.66000000000001 38.580000000000034 L 82.89000000000001 38.580000000000034 C 82.89000000000001 38.45000000000003 82.85000000000001 38.360000000000035 82.80000000000001 38.23000000000003 C 82.54 37.400000000000034 82.28000000000002 36.570000000000036 81.97000000000001 35.78000000000003 C 81.62000000000002 34.95000000000003 81.31000000000002 34.16000000000003 80.96000000000001 33.42000000000003 C 80.92 33.33000000000003 80.83000000000001 33.20000000000003 80.79 33.07000000000003 L 84.73 29.09000000000003 C 85.47 28.430000000000028 86 27.650000000000027 86.39 26.770000000000028 C 86.74 25.900000000000027 86.96 24.930000000000028 86.96 23.930000000000028 C 86.96 22.920000000000027 86.78999999999999 22.010000000000026 86.39 21.09000000000003 C 86 20.220000000000027 85.47 19.430000000000028 84.77 18.73000000000003 L 84.72999999999999 18.73000000000003 L 78.03999999999999 12.080000000000028 C 77.33999999999999 11.38000000000003 76.55 10.860000000000028 75.63 10.46000000000003 C 74.71 10.070000000000029 73.78999999999999 9.890000000000029 72.78999999999999 9.890000000000029 C 71.83 9.890000000000029 70.86999999999999 10.060000000000029 69.94999999999999 10.46000000000003 C 69.02999999999999 10.810000000000029 68.24 11.38000000000003 67.53999999999999 12.08000000000003 L 64.13 15.450000000000031 L 63.87 15.32000000000003 C 63.169999999999995 14.93000000000003 62.379999999999995 14.58000000000003 61.55 14.18000000000003 C 60.76 13.83000000000003 59.98 13.48000000000003 59.19 13.17000000000003 C 59.059999999999995 13.130000000000031 58.879999999999995 13.04000000000003 58.75 12.99000000000003 L 58.75 7.390000000000031 C 58.75 6.380000000000031 58.58 5.420000000000031 58.23 4.550000000000031 C 57.879999999999995 3.670000000000031 57.309999999999995 2.840000000000031 56.61 2.1400000000000308 C 55.87 1.4400000000000308 55.08 0.8700000000000307 54.2 0.5200000000000307 C 53.29 0.17 52.37 0 51.36 0 L 47.91 0 L 47.13999999999999 0 L 43.68999999999999 0 C 42.67999999999999 0 41.76999999999999 0.17 40.849999999999994 0.52 C 39.98 0.87 39.19 1.44 38.44 2.14 C 37.739999999999995 2.84 37.169999999999995 3.67 36.82 4.550000000000001 C 36.47 5.420000000000001 36.3 6.390000000000001 36.3 7.390000000000001 L 36.3 12.99 C 36.169999999999995 13.03 35.989999999999995 13.120000000000001 35.86 13.17 C 35.07 13.48 34.29 13.83 33.5 14.18 C 32.67 14.57 31.88 14.92 31.18 15.32 L 30.919999999999998 15.450000000000001 L 27.509999999999998 12.080000000000002 C 26.81 11.380000000000003 26.02 10.810000000000002 25.099999999999998 10.46 C 24.179999999999996 10.07 23.22 9.89 22.259999999999998 9.89 C 21.249999999999996 9.89 20.339999999999996 10.06 19.419999999999998 10.46 C 18.499999999999996 10.850000000000001 17.709999999999997 11.38 17.009999999999998 12.080000000000002 L 10.319999999999997 18.730000000000004 L 10.279999999999998 18.730000000000004 C 9.579999999999998 19.430000000000003 9.059999999999997 20.220000000000002 8.659999999999997 21.090000000000003 C 8.27 22 8.09 22.92 8.09 23.92 C 8.09 24.930000000000003 8.31 25.89 8.66 26.76 C 9.05 27.630000000000003 9.58 28.42 10.32 29.080000000000002 L 14.26 33.06 C 14.22 33.190000000000005 14.129999999999999 33.32 14.09 33.410000000000004 C 13.74 34.150000000000006 13.43 34.940000000000005 13.08 35.77 C 12.77 36.56 12.51 37.39 12.25 38.220000000000006 C 12.21 38.35000000000001 12.16 38.440000000000005 12.16 38.57000000000001 L 7.390000000000001 38.57000000000001 C 6.380000000000001 38.57000000000001 5.420000000000001 38.75000000000001 4.550000000000001 39.14000000000001 C 3.6800000000000006 39.49000000000001 2.8900000000000006 40.06000000000001 2.190000000000001 40.760000000000005 L 2.150000000000001 40.800000000000004 C 1.4500000000000008 41.50000000000001 0.9300000000000008 42.290000000000006 0.5800000000000007 43.160000000000004 C 0.22 44.04 0 45.01 0 45.97 L 0 55.5 C 0 56.51 0.17 57.42 0.52 58.34 C 0.87 59.260000000000005 1.44 60.050000000000004 2.14 60.75 C 2.84 61.45 3.67 62.02 4.550000000000001 62.37 C 5.420000000000001 62.72 6.390000000000001 62.89 7.390000000000001 62.89 L 12.99 62.89 C 13.03 63.02 13.120000000000001 63.2 13.17 63.33 C 13.48 64.12 13.83 64.89999999999999 14.18 65.69 C 14.48 66.32 14.75 66.92 15.03 67.47 L 21.64 67.47 L 21.64 67.48 z M 32.47 58.63 C 31.64 58.660000000000004 31 58.830000000000005 30.57 59.13 C 30.32 59.300000000000004 30.14 59.510000000000005 30.03 59.760000000000005 C 29.900000000000002 60.040000000000006 29.84 60.38 29.85 60.77 C 29.880000000000003 61.910000000000004 30.48 63.410000000000004 31.64 65.14 L 31.66 65.16 L 35.42 71.14999999999999 C 36.93 73.55 38.510000000000005 75.99999999999999 40.480000000000004 77.78999999999999 C 42.370000000000005 79.52 44.660000000000004 80.69 47.7 80.69999999999999 C 50.980000000000004 80.71 53.39 79.49 55.34 77.66999999999999 C 57.370000000000005 75.76999999999998 58.970000000000006 73.16999999999999 60.540000000000006 70.57 L 64.78 63.58999999999999 C 65.57000000000001 61.78999999999999 65.86 60.57999999999999 65.68 59.86999999999999 C 65.57000000000001 59.44999999999999 65.11000000000001 59.23999999999999 64.31 59.19999999999999 C 64.14 59.18999999999999 63.97 59.18999999999999 63.79 59.18999999999999 C 63.6 59.19999999999999 63.4 59.209999999999994 63.199999999999996 59.22999999999999 C 63.089999999999996 59.23999999999999 62.98 59.22999999999999 62.87 59.20999999999999 C 62.489999999999995 59.22999999999999 62.099999999999994 59.19999999999999 61.71 59.149999999999984 L 63.160000000000004 52.719999999999985 C 52.39 54.41999999999999 44.330000000000005 46.41999999999999 32.940000000000005 51.11999999999998 L 33.760000000000005 58.68999999999998 C 33.31 58.7 32.87 58.69 32.47 58.63 L 32.47 58.63 L 32.47 58.63 L 32.47 58.63 z M 65.76 57.28 C 66.80000000000001 57.6 67.47 58.26 67.75 59.33 C 68.05 60.519999999999996 67.72 62.19 66.72 64.47 L 66.72 64.47 C 66.7 64.51 66.67999999999999 64.55 66.66 64.59 L 62.37 71.65 C 60.72 74.37 59.04 77.10000000000001 56.8 79.2 L 56.69 79.3 C 56.9 79.61 57.14 79.95 57.379999999999995 80.31 C 58.12 81.4 58.97 82.65 59.76 83.62 C 64.42 86.52000000000001 74.67 87.30000000000001 78.68 89.53 C 88.88000000000001 95.22 85.16000000000001 109.04 85.9 118.98 C 85.68 121.33 84.35000000000001 122.68 81.73 122.88000000000001 L 78.9 122.88000000000001 L 82.01 99.31 C 82.25 97.47 80.95 95.97 79.34 95.97 L 57.47 95.97 C 58.01 92.12 58.4 88.44 58.589999999999996 85.66 C 57.56999999999999 84.53 56.48 82.92999999999999 55.54 81.55 C 55.33 81.25 55.13 80.95 54.94 80.67999999999999 C 52.97 81.99999999999999 50.629999999999995 82.82 47.699999999999996 82.80999999999999 C 44.42999999999999 82.79999999999998 41.879999999999995 81.67999999999999 39.769999999999996 79.96999999999998 C 39.17999999999999 81.73999999999998 38.309999999999995 84.17999999999998 37.47 85.34999999999998 C 37.4 85.44999999999997 37.31 85.53999999999998 37.21 85.60999999999999 C 37.57 88.47999999999999 38.07 92.15999999999998 38.660000000000004 95.97999999999999 L 16.260000000000005 95.97999999999999 C 14.660000000000005 95.97999999999999 13.350000000000005 97.47999999999999 13.590000000000005 99.32 L 16.700000000000006 122.88999999999999 L 13.860000000000007 122.88999999999999 C 11.240000000000006 122.68999999999998 9.910000000000007 121.33999999999999 9.690000000000007 118.98999999999998 C 9.820000000000007 108.45999999999998 5.8200000000000065 95.71999999999998 16.910000000000007 89.53999999999998 C 20.970000000000006 87.26999999999998 31.440000000000005 86.49999999999997 36.010000000000005 83.50999999999998 C 36.71000000000001 82.19999999999997 37.480000000000004 79.83999999999997 37.95 78.43999999999997 C 38 78.27999999999997 37.92 78.53999999999996 38 78.30999999999997 C 36.32 76.50999999999998 34.95 74.37999999999997 33.63 72.27999999999997 L 29.870000000000005 66.29999999999997 C 28.490000000000006 64.24999999999997 27.780000000000005 62.36999999999997 27.730000000000004 60.82999999999997 C 27.710000000000004 60.10999999999997 27.830000000000005 59.44999999999997 28.100000000000005 58.86999999999997 C 28.380000000000006 58.26999999999997 28.810000000000006 57.75999999999997 29.390000000000004 57.36999999999997 C 29.660000000000004 57.18999999999997 29.970000000000002 57.029999999999966 30.300000000000004 56.89999999999997 C 30.060000000000006 53.64999999999997 29.960000000000004 49.559999999999974 30.120000000000005 46.13999999999997 C 30.200000000000003 45.32999999999997 30.360000000000003 44.50999999999997 30.580000000000005 43.699999999999974 C 31.960000000000004 38.77999999999997 36.190000000000005 35.229999999999976 41.02 33.559999999999974 C 43.36 32.74999999999997 42.46 30.819999999999972 44.830000000000005 30.949999999999974 C 50.45 31.259999999999973 59.11000000000001 34.879999999999974 62.440000000000005 38.71999999999997 C 67.12 44.09 65.91 50.71 65.76 57.28 L 65.76 57.28 L 65.76 57.28 L 65.76 57.28 z M 40.04 90.19 C 38.14 88.03 37.98 85.77 40.04 83.38 C 42.42 83.97999999999999 44.6 85.00999999999999 46.61 86.39999999999999 C 47.04 86.21 47.55 86.13 48.04 86.16999999999999 C 50.129999999999995 84.68999999999998 52.79 84.08999999999999 55.12 82.97999999999999 C 57.9 85.68999999999998 57.599999999999994 88.17999999999999 54.87 90.49 C 53.339999999999996 90.14 51.89 89.6 50.5 88.89 C 50.46 89.25 50.37 89.64 50.2 90.06 L 50.910000000000004 95.97 L 45.24 95.97 L 45.95 90.06 C 45.510000000000005 89.31 45.34 88.67 45.35 88.14 C 43.7 89.13 41.91 89.77 40.04 90.19 L 40.04 90.19 L 40.04 90.19 z" stroke-linecap="round" />
</g>
</svg>