<?xml version="1.0" encoding="UTF-8" standalone="no" ?>
<!DOCTYPE svg PUBLIC "-//W3C//DTD SVG 1.1//EN" "http://www.w3.org/Graphics/SVG/1.1/DTD/svg11.dtd">
<svg xmlns="http://www.w3.org/2000/svg" xmlns:xlink="http://www.w3.org/1999/xlink" version="1.1" width="1080" height="1080" viewBox="0 0 1080 1080" xml:space="preserve">
<desc>Created with Fabric.js 5.2.4</desc>
<defs>
</defs>
<rect x="0" y="0" width="100%" height="100%" fill="transparent"></rect>
<g transform="matrix(1 0 0 1 540 540)" id="55fb35d9-bab3-48e0-a635-591325656ca5"  >
<rect style="stroke: none; stroke-width: 1; stroke-dasharray: none; stroke-linecap: butt; stroke-dashoffset: 0; stroke-linejoin: miter; stroke-miterlimit: 4; fill: rgb(255,255,255); fill-rule: nonzero; opacity: 1; visibility: hidden;" vector-effect="non-scaling-stroke"  x="-540" y="-540" rx="0" ry="0" width="1080" height="1080" />
</g>
<g transform="matrix(1 0 0 1 540 540)" id="952818b6-258c-4c96-979f-2fd433d9e403"  >
</g>
<g transform="matrix(2.07 0 0 2.07 543.16 533.9)" id="d22e192b-c81c-44e7-b278-29c918e6604b"  >
<path style="stroke: rgb(0,0,0); stroke-width: 0; stroke-dasharray: none; stroke-linecap: butt; stroke-dashoffset: 0; stroke-linejoin: miter; stroke-miterlimit: 4; fill: rgb(242,238,238); fill-rule: nonzero; opacity: 1;" vector-effect="non-scaling-stroke"  transform=" translate(-256, -256)" d="M 74.358 139.492 L 54.628 180.45299999999997 C 49.345 192.24299999999997 41.093 200.22199999999998 32.821 203.89399999999998 C 28.342999999999996 205.88099999999997 23.75 206.65999999999997 19.430999999999997 206.17999999999998 C 14.715999999999998 205.65699999999998 10.441999999999997 203.66799999999998 7.044999999999998 200.158 C 2.780999999999998 195.749 0.08599999999999852 189.075 0.02499999999999858 180.10999999999999 L 0.02599999999999858 180.045 L 0.002 180.045 L 0.001 36.86 C 0.001 22.682 1.7799999999999998 13.812999999999999 7.797000000000001 7.795999999999999 C 13.815 1.778 22.683 0 36.86 0 L 180.046 0.002 L 180.73999999999998 0.034 C 189.38599999999997 0.211 195.85299999999998 2.8819999999999997 200.159 7.045 C 203.68599999999998 10.459 205.677 14.724 206.202 19.409 L 206.251 20.186999999999998 C 206.564 24.281999999999996 205.764 28.604999999999997 203.893 32.821999999999996 C 200.221 41.093999999999994 192.243 49.346 180.452 54.62599999999999 L 139.493 74.357 L 256 190.865 L 372.508 74.357 L 331.54699999999997 54.626999999999995 C 319.75699999999995 49.343999999999994 311.777 41.090999999999994 308.10699999999997 32.821999999999996 C 306.11999999999995 28.343999999999994 305.34 23.748999999999995 305.82 19.429999999999996 C 306.343 14.715999999999996 308.33299999999997 10.439999999999996 311.842 7.044999999999996 C 316.253 2.78 322.925 0.085 331.89 0.024 L 331.955 0.025 L 331.955 0.002 L 475.14 0 C 489.318 0 498.187 1.779 504.204 7.796 C 510.222 13.814 512 22.682 512 36.86 L 511.998 180.04500000000002 L 511.967 180.739 C 511.789 189.385 509.118 195.852 504.955 200.15800000000002 C 501.56 203.667 497.288 205.65300000000002 492.57 206.18 C 488.254 206.65900000000002 483.657 205.881 479.179 203.894 C 470.907 200.222 462.65599999999995 192.243 457.373 180.453 L 437.643 139.49200000000002 L 321.135 256 L 437.644 372.508 L 457.374 331.548 C 462.65700000000004 319.757 470.91 311.778 479.17900000000003 308.108 C 483.65700000000004 306.12 488.25300000000004 305.339 492.571 305.821 C 497.286 306.34400000000005 501.56100000000004 308.334 504.95700000000005 311.84200000000004 C 509.22200000000004 316.25300000000004 511.91600000000005 322.92500000000007 511.97700000000003 331.891 L 511.97600000000006 331.95500000000004 L 512 331.95500000000004 L 512.001 475.1410000000001 C 512.001 489.3190000000001 510.22299999999996 498.18700000000007 504.205 504.20400000000006 C 498.188 510.22100000000006 489.31899999999996 512.0000000000001 475.142 512.0000000000001 L 331.956 511.99900000000014 L 331.262 511.96700000000016 C 322.616 511.78900000000016 316.149 509.11800000000017 311.843 504.95600000000013 C 308.334 501.56100000000015 306.348 497.2860000000001 305.821 492.5700000000001 C 305.34200000000004 488.2550000000001 306.12 483.65800000000013 308.107 479.1800000000001 C 311.78000000000003 470.90800000000013 319.75800000000004 462.6560000000001 331.548 457.3730000000001 L 372.509 437.6430000000001 L 256 321.134 L 139.492 437.643 L 180.452 457.373 C 192.243 462.656 200.221 470.908 203.893 479.18 C 205.881 483.658 206.66 488.25100000000003 206.179 492.57 C 205.656 497.28499999999997 203.667 501.55899999999997 200.15800000000002 504.956 C 195.74800000000002 509.22 189.07500000000002 511.915 180.109 511.97700000000003 L 180.04500000000002 511.975 L 180.04500000000002 511.999 L 36.859 512 C 22.683 511.999 13.815000000000001 510.224 7.796000000000003 504.204 C 1.779 498.188 0.001 489.317 0 475.141 L 0.001 331.95500000000004 L 0.033 331.26200000000006 C 0.211 322.61500000000007 2.882 316.14900000000006 7.0440000000000005 311.84200000000004 C 10.458 308.31500000000005 14.723 306.32400000000007 19.409 305.80000000000007 L 20.186 305.75000000000006 C 24.281 305.43700000000007 28.604 306.2370000000001 32.821 308.10800000000006 C 41.092999999999996 311.7800000000001 49.345 319.75800000000004 54.626 331.54900000000004 L 74.357 372.50800000000004 L 190.866 256 L 74.358 139.492 z M 40.774 173.767 L 64.947 123.585 C 65.88779008762788 121.15126786284634 67.99510722626587 119.35807173039203 70.54802767318677 118.81887297660398 C 73.10094812010766 118.27967422281593 75.75341269948088 119.06756352177676 77.59799999999998 120.91299999999998 L 207.23 250.545 C 208.6768870519627 251.99168636936753 209.489756606091 253.95393460699538 209.489756606091 255.99999999999997 C 209.489756606091 258.0460653930046 208.6768870519627 260.0083136306324 207.23 261.455 L 77.597 391.088 L 77.58099999999999 391.072 C 76.97167387713685 391.6812852296502 76.26411899642007 392.18363905322644 75.48799999999999 392.558 C 71.66499999999999 394.407 67.06599999999999 392.802 65.21699999999998 388.979 L 40.66699999999999 337.998 C 37.04099999999999 329.808 31.743999999999986 324.452 26.600999999999985 322.17 C 24.754999999999985 321.351 23.024999999999984 320.969 21.537999999999986 321.045 L 21.153999999999986 321.099 C 19.948999999999984 321.234 18.882999999999985 321.712 18.080999999999985 322.53999999999996 C 16.526999999999987 324.14599999999996 15.516999999999985 327.078 15.415999999999986 331.489 L 15.428999999999986 475.14099999999996 C 15.429999999999986 485.05699999999996 16.176999999999985 490.76699999999994 18.704999999999984 493.29499999999996 C 21.232999999999983 495.823 26.942999999999984 496.56999999999994 36.85899999999998 496.57099999999997 L 180.045 496.57 L 180.045 496.591 C 184.71499999999997 496.551 187.798 495.527 189.45999999999998 493.919 C 190.30599999999998 493.099 190.79099999999997 492.044 190.92199999999997 490.86699999999996 C 191.09799999999996 489.29099999999994 190.72599999999997 487.41299999999995 189.83099999999996 485.4 C 187.56299999999996 480.28999999999996 182.25699999999995 475.027 174.15499999999997 471.40099999999995 L 123.58399999999997 447.054 C 121.15102797372722 446.11239030207713 119.35861544544365 444.00514435444927 118.81950209096402 441.4526282438498 C 118.2803887364844 438.90011213325033 119.0675901455668 436.2480295370855 120.91199999999998 434.40299999999996 L 250.545 304.77 C 251.99168636936753 303.3231129480373 253.95393460699538 302.510243393909 256 302.510243393909 C 258.0460653930046 302.510243393909 260.0083136306324 303.3231129480373 261.455 304.77 L 391.08799999999997 434.403 L 391.073 434.41900000000004 C 392.83390778404964 436.18041185240384 393.6329660836526 438.68541843229787 393.21725763356335 441.1411371503598 C 392.8015491834741 443.5968558684217 391.22253375796845 445.6992978812944 388.97999999999996 446.783 L 337.99899999999997 471.333 C 329.80999999999995 474.961 324.45199999999994 480.25800000000004 322.169 485.40000000000003 C 321.275 487.413 320.90299999999996 489.29100000000005 321.078 490.867 C 321.21 492.043 321.695 493.09900000000005 322.541 493.91900000000004 C 324.146 495.473 327.079 496.48300000000006 331.49 496.58400000000006 L 475.142 496.5710000000001 C 485.05899999999997 496.5710000000001 490.767 495.8230000000001 493.295 493.2950000000001 C 495.825 490.7650000000001 496.572 485.05800000000005 496.572 475.1410000000001 L 496.571 331.95500000000004 L 496.59200000000004 331.95500000000004 C 496.552 327.285 495.528 324.20200000000006 493.92 322.54 C 493.1 321.694 492.04400000000004 321.209 490.867 321.07800000000003 C 489.29200000000003 320.90200000000004 487.415 321.276 485.40000000000003 322.17 C 480.29200000000003 324.438 475.02700000000004 329.743 471.40200000000004 337.845 L 447.05500000000006 388.41600000000005 C 446.1133903020772 390.8489720262728 444.00614435444936 392.6413845545564 441.4536282438499 393.18049790903603 C 438.9011121332504 393.7196112635157 436.24902953708556 392.9324098544333 434.40400000000005 391.0880000000001 L 304.771 261.455 C 303.32411294803734 260.0083136306324 302.511243393909 258.0460653930046 302.511243393909 256 C 302.511243393909 253.95393460699538 303.32411294803734 251.99168636936753 304.771 250.545 L 434.403 120.91299999999998 L 434.418 120.92799999999998 C 435.0274773874902 120.31915846588605 435.73501209482936 119.81715701323498 436.511 119.44299999999998 C 440.334 117.59399999999998 444.934 119.19899999999998 446.783 123.02199999999998 L 471.333 174.00199999999998 C 474.96000000000004 182.19199999999998 480.257 187.54999999999998 485.40000000000003 189.832 C 487.413 190.726 489.29100000000005 191.09799999999998 490.86600000000004 190.923 C 492.04200000000003 190.791 493.09900000000005 190.307 493.91900000000004 189.461 C 495.47200000000004 187.85500000000002 496.482 184.92200000000003 496.58400000000006 180.512 L 496.5710000000001 36.860000000000014 C 496.5710000000001 26.942000000000014 495.82400000000007 21.235000000000014 493.2940000000001 18.706000000000014 C 490.7660000000001 16.178000000000015 485.0580000000001 15.430000000000014 475.1400000000001 15.430000000000014 L 331.9550000000001 15.431000000000013 L 331.9550000000001 15.410000000000013 C 327.2820000000001 15.450000000000012 324.2020000000001 16.473000000000013 322.5390000000001 18.081000000000014 C 321.6930000000001 18.901000000000014 321.2080000000001 19.957000000000015 321.0770000000001 21.134000000000015 C 320.9020000000001 22.709000000000014 321.2750000000001 24.586000000000013 322.1690000000001 26.602000000000015 C 324.43700000000007 31.709000000000014 329.7400000000001 36.97400000000002 337.8450000000001 40.59900000000002 L 388.4150000000001 64.94700000000002 C 390.8487321371537 65.88779008762789 392.64192826960806 67.99510722626589 393.18112702339613 70.54802767318678 C 393.72032577718414 73.10094812010766 392.93243647822334 75.75341269948089 391.0870000000001 77.59800000000001 L 261.455 207.229 C 260.0083136306324 208.6758870519627 258.0460653930046 209.48875660609102 256 209.48875660609102 C 253.95393460699538 209.48875660609102 251.99168636936753 208.6758870519627 250.545 207.229 L 120.913 77.598 L 120.929 77.582 C 119.16853655882493 75.82038838461506 118.36977862836046 73.31553233766213 118.7854582306641 70.85998403241507 C 119.20113783296773 68.40443572716799 120.77982007952335 66.3020369990846 123.022 65.21799999999999 L 174.00300000000001 40.66699999999999 C 182.191 37.04099999999999 187.549 31.743999999999986 189.83100000000002 26.60199999999999 C 190.65 24.75599999999999 191.032 23.02599999999999 190.95600000000002 21.53899999999999 L 190.90200000000002 21.15499999999999 C 190.76700000000002 19.94999999999999 190.28900000000002 18.88399999999999 189.461 18.08099999999999 C 187.85500000000002 16.527999999999988 184.923 15.517999999999988 180.512 15.41599999999999 L 36.86 15.43 C 26.942999999999998 15.43 21.235999999999997 16.176 18.706 18.706 C 16.178 21.233999999999998 15.43 26.942 15.43 36.86 L 15.431 180.04500000000002 L 15.409999999999998 180.04500000000002 C 15.449999999999998 184.715 16.473999999999997 187.798 18.081999999999997 189.461 C 18.901999999999997 190.30700000000002 19.956999999999997 190.792 21.133999999999997 190.923 C 22.709999999999997 191.098 24.587999999999997 190.726 26.600999999999996 189.832 C 31.710999999999995 187.564 36.974 182.257 40.599999999999994 174.156 L 40.773999999999994 173.767 z" stroke-linecap="round" />
</g>
</svg>