<?xml version="1.0" encoding="UTF-8" standalone="no" ?>
<!DOCTYPE svg PUBLIC "-//W3C//DTD SVG 1.1//EN" "http://www.w3.org/Graphics/SVG/1.1/DTD/svg11.dtd">
<svg xmlns="http://www.w3.org/2000/svg" xmlns:xlink="http://www.w3.org/1999/xlink" version="1.1" width="1080" height="1080" viewBox="0 0 1080 1080" xml:space="preserve">
<desc>Created with Fabric.js 5.2.4</desc>
<defs>
</defs>
<rect x="0" y="0" width="100%" height="100%" fill="transparent"></rect>
<g transform="matrix(1 0 0 1 540 540)" id="55fb35d9-bab3-48e0-a635-591325656ca5"  >
<rect style="stroke: none; stroke-width: 1; stroke-dasharray: none; stroke-linecap: butt; stroke-dashoffset: 0; stroke-linejoin: miter; stroke-miterlimit: 4; fill: rgb(255,255,255); fill-rule: nonzero; opacity: 1; visibility: hidden;" vector-effect="non-scaling-stroke"  x="-540" y="-540" rx="0" ry="0" width="1080" height="1080" />
</g>
<g transform="matrix(1 0 0 1 540 540)" id="952818b6-258c-4c96-979f-2fd433d9e403"  >
</g>
<g transform="matrix(9.91 0 0 8.56 539.36 540.1)" id="c02d5b5b-b648-440f-a5aa-797df536ee7f"  >
<path style="stroke: rgb(0,0,0); stroke-width: 0; stroke-dasharray: none; stroke-linecap: butt; stroke-dashoffset: 0; stroke-linejoin: miter; stroke-miterlimit: 4; fill: rgb(240,233,233); fill-rule: nonzero; opacity: 1;" vector-effect="non-scaling-stroke"  transform=" translate(-53.3, -61.45)" d="M 21.56 91.1 C 22.48 90.64999999999999 23.599999999999998 91.03999999999999 24.04 91.97 C 24.49 92.9 24.099999999999998 94.01 23.169999999999998 94.45 C 21.54 95.24000000000001 19.7 95.49000000000001 17.639999999999997 95.28 C 16.529999999999998 95.16 15.349999999999998 94.91 14.119999999999997 94.53 C 14.169999999999998 95.01 14.219999999999997 95.48 14.279999999999998 95.96000000000001 C 14.459999999999997 97.30000000000001 14.699999999999998 98.68 15.009999999999998 100.09 C 15.119999999999997 100.58 15.019999999999998 101.07000000000001 14.779999999999998 101.47 C 13.739999999999998 103.58 13.209999999999997 105.34 13.109999999999998 106.8 C 13.009999999999998 108.32 13.419999999999998 109.46 14.219999999999997 110.28 C 15.109999999999998 111.18 16.509999999999998 111.78 18.279999999999998 112.12 C 21.099999999999998 112.65 24.72 112.49000000000001 28.65 111.78 C 32.4 111.11 36.62 110.02 40.5 108.52 C 43.65 107.3 46.57 105.8 48.8 104.02 C 50.98 102.28 51.98 99.42999999999999 52.83 96.99 C 53.01 96.47999999999999 53.18 96 53.26 95.78999999999999 L 53.51 95.11999999999999 C 54.58 92.17999999999999 56.44 87.07 58.849999999999994 85.21 C 59.66 84.58 60.82999999999999 84.72999999999999 61.459999999999994 85.55 C 62.089999999999996 86.36 61.93999999999999 87.53 61.11999999999999 88.16 C 59.55999999999999 89.36 57.93999999999999 93.82 56.99999999999999 96.39999999999999 C 56.809999999999995 96.92999999999999 56.849999999999994 96.83 56.74999999999999 97.08999999999999 C 56.54999999999999 97.63 56.43999999999999 97.92999999999999 56.339999999999996 98.22999999999999 C 55.31999999999999 101.13999999999999 54.129999999999995 104.53999999999999 51.11 106.94999999999999 C 48.58 108.96999999999998 45.33 110.64999999999999 41.84 111.99999999999999 C 41.050000000000004 112.30999999999999 40.24 112.59999999999998 39.43000000000001 112.86999999999999 C 39.46000000000001 114.08999999999999 39.42000000000001 115.3 39.300000000000004 116.52 C 39.14000000000001 118.22 38.830000000000005 119.89 38.39000000000001 121.52 C 38.120000000000005 122.50999999999999 37.10000000000001 123.1 36.11000000000001 122.83999999999999 C 35.120000000000005 122.57 34.53000000000001 121.54999999999998 34.790000000000006 120.55999999999999 C 35.18000000000001 119.08999999999999 35.46000000000001 117.62999999999998 35.60000000000001 116.16999999999999 C 35.67000000000001 115.44999999999999 35.71000000000001 114.72999999999999 35.720000000000006 113.99999999999999 C 33.53000000000001 114.59999999999998 31.350000000000005 115.07999999999998 29.310000000000006 115.44999999999999 C 24.940000000000005 116.22999999999999 20.870000000000005 116.40999999999998 17.600000000000005 115.78999999999999 C 15.100000000000005 115.32 13.030000000000005 114.38 11.570000000000004 112.91 C 10.030000000000005 111.34 9.230000000000004 109.25999999999999 9.400000000000004 106.59 C 9.520000000000003 104.78 10.100000000000003 102.68 11.240000000000004 100.29 C 10.990000000000004 99.06 10.770000000000003 97.79 10.600000000000003 96.47000000000001 C 10.410000000000004 95.00000000000001 10.280000000000003 93.52000000000001 10.220000000000002 92.02000000000001 C 10.210000000000003 91.97000000000001 10.210000000000003 91.91000000000001 10.210000000000003 91.86000000000001 C 10.200000000000003 91.80000000000001 10.190000000000003 91.73000000000002 10.180000000000003 91.67000000000002 C 9.910000000000004 88.86000000000001 9.880000000000003 86.12000000000002 9.840000000000003 83.35000000000002 L 9.830000000000004 82.71000000000002 L 5.530000000000004 82.46000000000002 L 5.480000000000004 82.46000000000002 C 4.360000000000004 82.42000000000002 3.350000000000004 82.09000000000002 2.510000000000004 81.54000000000002 C 1.690000000000004 81.01000000000002 1.0400000000000038 80.27000000000002 0.6100000000000039 79.39000000000001 C 0.2 78.49 -0.02 77.51 0 76.43 C 0.03 74.94000000000001 0.53 73.28 1.62 71.58000000000001 L 6.22 62.170000000000016 C 8.48 57.56000000000002 8.45 56.95000000000002 8.36 54.530000000000015 C 8.32 53.44000000000001 8.26 52.05000000000002 8.33 49.960000000000015 C 8.41 47.47000000000001 8.69 45.09000000000002 9.23 42.860000000000014 C 9.610000000000001 41.280000000000015 10.120000000000001 39.780000000000015 10.780000000000001 38.360000000000014 L 2.410000000000002 34.710000000000015 C 1.470000000000002 34.30000000000002 1.0400000000000018 33.20000000000002 1.450000000000002 32.26000000000001 C 1.510000000000002 32.13000000000001 1.5800000000000018 32.01000000000001 1.650000000000002 31.900000000000013 L 1.650000000000002 31.900000000000013 C 21.650000000000002 4.640000000000011 44.24 -2.859999999999985 63.35 0.9000000000000128 C 74.51 3.100000000000013 84.46000000000001 9.160000000000013 91.98 17.400000000000013 C 99.5 25.62000000000001 104.61 36.02000000000001 106.13000000000001 46.91000000000001 C 108.62 64.82000000000001 101.43 84.00000000000001 79.30000000000001 96.98000000000002 C 79.11000000000001 97.09000000000002 78.91000000000001 97.17000000000002 78.70000000000002 97.20000000000002 C 78.71000000000002 99.92000000000002 78.88000000000002 102.55000000000001 79.19000000000001 105.11000000000001 C 79.81000000000002 110.17000000000002 80.99000000000001 114.92000000000002 82.67000000000002 119.38000000000001 C 83.03000000000002 120.34 82.55000000000001 121.41000000000001 81.58000000000001 121.78000000000002 C 80.62000000000002 122.14000000000001 79.55000000000001 121.66000000000001 79.18 120.69000000000001 C 77.39 115.94000000000001 76.13000000000001 110.91000000000001 75.48 105.56000000000002 C 74.83 100.23000000000002 74.78 94.57000000000002 75.4 88.53000000000002 C 75.5 87.51000000000002 76.42 86.76000000000002 77.44000000000001 86.87000000000002 C 78.46000000000001 86.97000000000001 79.21000000000001 87.89000000000001 79.10000000000001 88.91000000000003 C 78.96000000000001 90.27000000000002 78.86000000000001 91.61000000000003 78.79 92.94000000000003 C 98.32000000000001 80.88000000000002 104.68 63.57000000000002 102.44 47.42000000000002 C 101.03 37.28000000000002 96.25999999999999 27.580000000000023 89.24 19.91000000000002 C 82.25 12.25 73 6.61 62.64 4.56 C 45.27 1.14 24.67 7.89 6.05 32.24 L 14 35.71 C 14.11 35.75 14.22 35.800000000000004 14.32 35.86 C 15.200000000000001 36.39 15.48 37.54 14.950000000000001 38.42 C 13.98 40.03 13.290000000000001 41.81 12.830000000000002 43.730000000000004 C 12.350000000000001 45.71 12.110000000000001 47.84 12.030000000000001 50.080000000000005 C 11.97 52.03000000000001 12.020000000000001 53.36000000000001 12.06 54.39000000000001 C 12.190000000000001 57.55000000000001 12.22 58.34000000000001 9.55 63.81000000000001 L 4.930000000000001 73.25000000000001 C 4.890000000000001 73.34000000000002 4.840000000000001 73.44000000000001 4.78 73.53000000000002 C 4.050000000000001 74.65000000000002 3.72 75.66000000000001 3.7 76.51000000000002 C 3.6900000000000004 76.97000000000001 3.77 77.37000000000002 3.93 77.69000000000003 C 4.07 77.98000000000003 4.2700000000000005 78.21000000000002 4.5200000000000005 78.37000000000003 C 4.8100000000000005 78.56000000000003 5.170000000000001 78.67000000000003 5.58 78.69000000000003 C 5.63 78.69000000000003 5.68 78.69000000000003 5.73 78.69000000000003 L 11.06 79.00000000000003 C 11.23 78.94000000000003 11.41 78.91000000000003 11.600000000000001 78.91000000000003 C 11.660000000000002 78.91000000000003 11.730000000000002 78.91000000000003 11.790000000000001 78.92000000000003 L 11.790000000000001 78.91000000000003 L 16.700000000000003 79.33000000000003 C 17.730000000000004 79.41000000000003 18.490000000000002 80.31000000000003 18.400000000000002 81.34000000000003 C 18.320000000000004 82.37000000000003 17.42 83.13000000000004 16.39 83.04000000000003 L 16.29 83.03000000000003 L 13.52 82.87000000000003 L 13.53 83.25000000000003 C 13.559999999999999 85.67000000000003 13.59 88.06000000000003 13.79 90.48000000000003 C 15.34 91.06000000000003 16.75 91.43000000000004 18 91.56000000000003 C 19.4 91.72 20.58 91.57 21.56 91.1 L 21.56 91.1 L 21.56 91.1 z M 56.39 32.42 C 57.31 30.990000000000002 58.53 30.220000000000002 59.81 29.950000000000003 C 61.03 29.700000000000003 62.27 29.92 63.34 30.460000000000004 C 64.4 30.990000000000006 65.3 31.850000000000005 65.86 32.88 C 66.07 33.27 66.23 33.68 66.33 34.1 C 66.95 34.09 67.59 34.190000000000005 68.21 34.4 C 69.38 34.8 70.50999999999999 35.57 71.38 36.6 C 72.25999999999999 37.64 72.88 38.94 73.03999999999999 40.39 C 73.10999999999999 41.06 73.08999999999999 41.75 72.94 42.46 C 73.58 43.04 74.12 43.68 74.52 44.38 C 75.14 45.45 75.47 46.63 75.44 47.830000000000005 C 75.39999999999999 49.040000000000006 75.00999999999999 50.25000000000001 74.17999999999999 51.370000000000005 C 73.66 52.07000000000001 72.97999999999999 52.74 72.11 53.330000000000005 C 72.19 55.18000000000001 71.64 56.84 70.76 58.13 C 69.76 59.580000000000005 68.31 60.56 66.80000000000001 60.830000000000005 C 66.47000000000001 62.120000000000005 65.61000000000001 63.25000000000001 64.51 64.04 C 63.11000000000001 65.04 61.290000000000006 65.51 59.63 65.05000000000001 C 58.400000000000006 64.71000000000001 57.290000000000006 63.90000000000001 56.52 62.47000000000001 C 55.59 64.04 54.31 64.87000000000002 52.970000000000006 65.15000000000002 C 51.36000000000001 65.48000000000002 49.7 64.99000000000002 48.440000000000005 64.01000000000002 C 47.440000000000005 63.23000000000002 46.68000000000001 62.13000000000002 46.410000000000004 60.89000000000002 C 45.88 60.87000000000002 45.35 60.76000000000002 44.830000000000005 60.590000000000025 C 43.68000000000001 60.200000000000024 42.580000000000005 59.450000000000024 41.720000000000006 58.450000000000024 C 40.85000000000001 57.450000000000024 40.220000000000006 56.190000000000026 40.03000000000001 54.79000000000002 C 39.93000000000001 54.060000000000024 39.940000000000005 53.30000000000002 40.10000000000001 52.52000000000002 C 39.540000000000006 52.01000000000002 39.05000000000001 51.430000000000014 38.67000000000001 50.81000000000002 C 38.01000000000001 49.740000000000016 37.650000000000006 48.530000000000015 37.66000000000001 47.30000000000002 C 37.67000000000001 46.05000000000002 38.07000000000001 44.79000000000002 38.930000000000014 43.61000000000002 C 39.430000000000014 42.93000000000002 40.09000000000001 42.28000000000002 40.930000000000014 41.68000000000002 C 40.920000000000016 41.450000000000024 40.920000000000016 41.22000000000002 40.930000000000014 41.00000000000002 C 41.000000000000014 39.18000000000002 41.670000000000016 37.58000000000002 42.65000000000001 36.380000000000024 C 43.66000000000001 35.14000000000002 45.030000000000015 34.33000000000003 46.420000000000016 34.130000000000024 L 46.430000000000014 34.130000000000024 C 46.48000000000001 33.93000000000002 46.54000000000001 33.72000000000003 46.610000000000014 33.53000000000002 C 47.06000000000002 32.310000000000024 47.98000000000001 31.270000000000024 49.12000000000001 30.61000000000002 C 50.26000000000001 29.95000000000002 51.63000000000001 29.65000000000002 52.97000000000001 29.93000000000002 C 54.25 30.22 55.47 30.99 56.39 32.42 L 56.39 32.42 L 56.39 32.42 z M 66.27 36.58 C 66.07 37.25 65.7 37.92 65.14999999999999 38.58 C 64.72999999999999 39.08 63.97999999999999 39.14 63.47999999999999 38.72 C 62.97999999999999 38.3 62.90999999999999 37.55 63.33999999999999 37.05 C 64.22999999999999 35.989999999999995 64.24 34.879999999999995 63.76999999999999 34.01 C 63.44999999999999 33.41 62.90999999999999 32.9 62.26999999999999 32.58 C 61.64999999999999 32.269999999999996 60.94999999999999 32.14 60.28999999999999 32.28 C 59.40999999999999 32.46 58.54999999999999 33.15 57.94999999999999 34.54 C 57.95999999999999 34.6 57.95999999999999 34.67 57.95999999999999 34.73 L 57.95999999999999 59.23 C 57.97999999999999 59.29 57.999999999999986 59.349999999999994 58.009999999999984 59.419999999999995 C 58.34999999999999 61.489999999999995 59.249999999999986 62.489999999999995 60.259999999999984 62.769999999999996 C 61.18999999999998 63.029999999999994 62.259999999999984 62.73 63.11999999999998 62.11 C 63.95999999999999 61.51 64.55999999999999 60.63 64.56999999999998 59.7 C 64.57999999999998 58.650000000000006 63.80999999999998 57.45 61.729999999999976 56.400000000000006 C 61.13999999999997 56.10000000000001 60.909999999999975 55.38 61.20999999999997 54.800000000000004 C 61.50999999999997 54.21 62.229999999999976 53.980000000000004 62.809999999999974 54.28 C 65.09999999999998 55.45 66.29999999999997 56.88 66.74999999999997 58.33 C 67.48999999999997 58.089999999999996 68.19999999999997 57.53 68.73999999999997 56.75 C 69.41999999999997 55.77 69.79999999999997 54.45 69.61999999999996 52.97 C 69.50999999999996 52.46 69.72999999999996 51.92 70.20999999999997 51.65 C 71.10999999999997 51.129999999999995 71.76999999999997 50.54 72.21999999999997 49.93 C 72.72999999999998 49.24 72.97999999999998 48.51 72.99999999999997 47.79 C 73.01999999999997 47.06 72.80999999999997 46.33 72.40999999999997 45.65 C 72.04999999999997 45.03 71.52999999999997 44.449999999999996 70.87999999999997 43.96 C 70.42999999999996 43.660000000000004 70.20999999999997 43.08 70.39999999999996 42.54 C 70.61999999999996 41.89 70.67999999999996 41.269999999999996 70.60999999999996 40.68 C 70.50999999999996 39.75 70.09999999999995 38.9 69.51999999999995 38.22 C 68.93999999999996 37.53 68.19999999999996 37.019999999999996 67.43999999999996 36.76 C 67.03 36.61 66.63 36.55 66.27 36.58 L 66.27 36.58 L 66.27 36.58 z M 46.53 58.45 C 47 56.96 48.25 55.480000000000004 50.61 54.27 C 51.2 53.970000000000006 51.92 54.2 52.21 54.790000000000006 C 52.51 55.38000000000001 52.28 56.10000000000001 51.69 56.400000000000006 C 49.51 57.510000000000005 48.68 58.790000000000006 48.69 59.910000000000004 C 48.69 60.78 49.19 61.6 49.91 62.160000000000004 C 50.63999999999999 62.730000000000004 51.589999999999996 63.02 52.48 62.84 C 53.589999999999996 62.61000000000001 54.669999999999995 61.580000000000005 55.22 59.34 L 55.22 35.76 C 54.66 33.53 53.589999999999996 32.51 52.48 32.28 C 51.75 32.13 50.97 32.300000000000004 50.309999999999995 32.69 C 49.63999999999999 33.08 49.099999999999994 33.68 48.839999999999996 34.37 C 48.49999999999999 35.29 48.699999999999996 36.43 49.849999999999994 37.489999999999995 C 50.32999999999999 37.92999999999999 50.35999999999999 38.67999999999999 49.919999999999995 39.16 C 49.48 39.63999999999999 48.73 39.669999999999995 48.24999999999999 39.23 C 47.349999999999994 38.4 46.79999999999999 37.519999999999996 46.519999999999996 36.64 C 45.809999999999995 36.81 45.11 37.28 44.55 37.96 C 43.89 38.77 43.44 39.85 43.39 41.1 C 43.38 41.43 43.39 41.78 43.44 42.14 L 43.44 42.14 C 43.5 42.61 43.3 43.09 42.87 43.36 C 42.01 43.89 41.37 44.48 40.919999999999995 45.08 C 40.379999999999995 45.82 40.129999999999995 46.589999999999996 40.12 47.339999999999996 C 40.11 48.099999999999994 40.339999999999996 48.849999999999994 40.76 49.529999999999994 C 41.11 50.099999999999994 41.6 50.629999999999995 42.19 51.06999999999999 C 42.629999999999995 51.36999999999999 42.839999999999996 51.949999999999996 42.66 52.47999999999999 C 42.43 53.16999999999999 42.37 53.83999999999999 42.459999999999994 54.46999999999999 C 42.589999999999996 55.36999999999999 42.99999999999999 56.18999999999999 43.57999999999999 56.849999999999994 C 44.14999999999999 57.50999999999999 44.87999999999999 58.00999999999999 45.61999999999999 58.25999999999999 C 45.94 58.38 46.24 58.44 46.53 58.45 L 46.53 58.45 L 46.53 58.45 z M 46.81 41.7 C 47.28 41.24 48.03 41.25 48.49 41.71 C 48.95 42.18 48.940000000000005 42.93 48.480000000000004 43.39 C 47.46 44.39 46.93000000000001 45.68 46.88 47.01 C 46.82 48.37 47.27 49.769999999999996 48.2 50.92 C 48.61 51.43 48.53 52.18 48.02 52.59 C 47.510000000000005 53 46.760000000000005 52.92 46.35 52.410000000000004 C 45.050000000000004 50.800000000000004 44.43 48.84 44.51 46.92 C 44.57 45 45.34 43.14 46.81 41.7 L 46.81 41.7 L 46.81 41.7 z M 63.65 42.84 C 63.12 42.45 63 41.71 63.379999999999995 41.18000000000001 C 63.769999999999996 40.650000000000006 64.50999999999999 40.53000000000001 65.03999999999999 40.92000000000001 C 65.27999999999999 41.09000000000001 65.49999999999999 41.27000000000001 65.71 41.46000000000001 C 67.25999999999999 42.86000000000001 68.1 44.70000000000001 68.25999999999999 46.60000000000001 C 68.41 48.49000000000001 67.88999999999999 50.44000000000001 66.69999999999999 52.07000000000001 C 66.52999999999999 52.31000000000001 66.33999999999999 52.540000000000006 66.13 52.77000000000001 C 65.69 53.26000000000001 64.94 53.30000000000001 64.44999999999999 52.860000000000014 C 63.95999999999999 52.420000000000016 63.91999999999999 51.670000000000016 64.35999999999999 51.180000000000014 C 64.50999999999999 51.02000000000002 64.63999999999999 50.850000000000016 64.76999999999998 50.680000000000014 C 65.61999999999998 49.51000000000001 65.98999999999998 48.13000000000002 65.88999999999999 46.79000000000001 C 65.77999999999999 45.47000000000001 65.19999999999999 44.20000000000002 64.11999999999999 43.23000000000001 C 63.97 43.09 63.82 42.96 63.65 42.84 L 63.65 42.84 L 63.65 42.84 z M 39.66 21.66 C 39.06999999999999 20.65 39.419999999999995 19.36 40.43 18.77 C 41.44 18.18 42.73 18.53 43.32 19.54 L 46.04 24.24 C 46.63 25.25 46.28 26.54 45.269999999999996 27.13 C 44.26 27.72 42.97 27.369999999999997 42.379999999999995 26.36 L 39.66 21.66 L 39.66 21.66 z M 54.87 16.68 C 54.87 15.51 55.82 14.559999999999999 56.989999999999995 14.559999999999999 C 58.16 14.559999999999999 59.10999999999999 15.509999999999998 59.10999999999999 16.68 L 59.10999999999999 22.11 C 59.10999999999999 23.28 58.15999999999999 24.23 56.989999999999995 24.23 C 55.81999999999999 24.23 54.87 23.28 54.87 22.11 L 54.87 16.68 L 54.87 16.68 z M 70.54 19.98 C 71.12 18.97 72.41000000000001 18.62 73.42 19.2 C 74.43 19.779999999999998 74.78 21.07 74.2 22.08 L 71.48 26.779999999999998 C 70.10000000000001 29.179999999999996 66.44 27.08 67.82000000000001 24.679999999999996 L 70.54 19.98 L 70.54 19.98 L 70.54 19.98 z M 82.46 30.67 C 83.47 30.080000000000002 84.75999999999999 30.430000000000003 85.35 31.44 C 85.94 32.45 85.58999999999999 33.74 84.58 34.33 L 79.88 37.05 C 78.86999999999999 37.64 77.58 37.29 76.99 36.279999999999994 C 76.39999999999999 35.269999999999996 76.75 33.98 77.75999999999999 33.38999999999999 L 82.46 30.67 L 82.46 30.67 z M 87.44 45.88 C 88.61 45.88 89.56 46.830000000000005 89.56 48 C 89.56 49.17 88.61 50.12 87.44 50.12 L 82 50.12 C 80.83 50.12 79.88 49.169999999999995 79.88 48 C 79.88 46.83 80.83 45.88 82 45.88 L 87.44 45.88 L 87.44 45.88 z M 84.13 61.55 C 85.14 62.129999999999995 85.49 63.419999999999995 84.91 64.42999999999999 C 84.33 65.44 83.03999999999999 65.78999999999999 82.03 65.21 L 77.33 62.489999999999995 C 76.32 61.91 75.97 60.62 76.55 59.60999999999999 C 77.13 58.599999999999994 78.42 58.24999999999999 79.42999999999999 58.82999999999999 L 84.13 61.55 L 84.13 61.55 L 84.13 61.55 z M 73.45 73.46 C 74.04 74.47 73.69 75.75999999999999 72.68 76.35 C 71.67 76.94 70.38000000000001 76.58999999999999 69.79 75.58 L 67.07000000000001 70.88 C 66.48 69.86999999999999 66.83000000000001 68.58 67.84 67.99 C 68.85000000000001 67.39999999999999 70.14 67.75 70.73 68.75999999999999 L 73.45 73.46 L 73.45 73.46 z M 58.24 78.44 C 58.24 79.61 57.29 80.56 56.120000000000005 80.56 C 54.95 80.56 54.00000000000001 79.61 54.00000000000001 78.44 L 54.00000000000001 73.00999999999999 C 54.00000000000001 71.83999999999999 54.95000000000001 70.88999999999999 56.120000000000005 70.88999999999999 C 57.290000000000006 70.88999999999999 58.24 71.83999999999999 58.24 73.00999999999999 L 58.24 78.44 L 58.24 78.44 z M 42.57 75.14 C 41.99 76.15 40.7 76.5 39.69 75.92 C 38.68 75.34 38.33 74.05 38.91 73.04 L 41.629999999999995 68.34 C 42.209999999999994 67.33 43.49999999999999 66.98 44.51 67.56 C 45.519999999999996 68.14 45.87 69.43 45.29 70.44 L 42.57 75.14 L 42.57 75.14 L 42.57 75.14 z M 30.65 64.45 C 29.639999999999997 65.04 28.349999999999998 64.69 27.759999999999998 63.68 C 27.169999999999998 62.67 27.52 61.38 28.529999999999998 60.79 L 33.23 58.07 C 34.239999999999995 57.48 35.529999999999994 57.83 36.12 58.84 C 36.71 59.85 36.36 61.14 35.349999999999994 61.730000000000004 L 30.65 64.45 L 30.65 64.45 z M 25.67 49.24 C 24.5 49.24 23.55 48.29 23.55 47.120000000000005 C 23.55 45.95 24.5 45.00000000000001 25.67 45.00000000000001 L 31.1 45.00000000000001 C 32.27 45.00000000000001 33.22 45.95000000000001 33.22 47.120000000000005 C 33.22 48.290000000000006 32.269999999999996 49.24 31.099999999999998 49.24 L 25.67 49.24 L 25.67 49.24 z M 28.98 33.57 C 27.97 32.99 27.62 31.7 28.2 30.69 C 28.779999999999998 29.68 30.07 29.330000000000002 31.08 29.91 L 35.78 32.63 C 36.79 33.21 37.14 34.5 36.56 35.510000000000005 C 35.980000000000004 36.52 34.690000000000005 36.870000000000005 33.68 36.290000000000006 L 28.98 33.57 L 28.98 33.57 L 28.98 33.57 z" stroke-linecap="round" />
</g>
</svg>