<?xml version="1.0" encoding="UTF-8" standalone="no" ?>
<!DOCTYPE svg PUBLIC "-//W3C//DTD SVG 1.1//EN" "http://www.w3.org/Graphics/SVG/1.1/DTD/svg11.dtd">
<svg xmlns="http://www.w3.org/2000/svg" xmlns:xlink="http://www.w3.org/1999/xlink" version="1.1" width="1080" height="1080" viewBox="0 0 1080 1080" xml:space="preserve">
<desc>Created with Fabric.js 5.2.4</desc>
<defs>
</defs>
<rect x="0" y="0" width="100%" height="100%" fill="transparent"></rect>
<g transform="matrix(1 0 0 1 540 540)" id="55fb35d9-bab3-48e0-a635-591325656ca5"  >
<rect style="stroke: none; stroke-width: 1; stroke-dasharray: none; stroke-linecap: butt; stroke-dashoffset: 0; stroke-linejoin: miter; stroke-miterlimit: 4; fill: rgb(255,255,255); fill-rule: nonzero; opacity: 1; visibility: hidden;" vector-effect="non-scaling-stroke"  x="-540" y="-540" rx="0" ry="0" width="1080" height="1080" />
</g>
<g transform="matrix(1 0 0 1 540 540)" id="952818b6-258c-4c96-979f-2fd433d9e403"  >
</g>
<g transform="matrix(2.57 0 0 2.07 531.5 536.07)" id="efb00444-73b0-445a-937c-d6cb6bfa0c36"  >
<path style="stroke: rgb(0,0,0); stroke-width: 0; stroke-dasharray: none; stroke-linecap: butt; stroke-dashoffset: 0; stroke-linejoin: miter; stroke-miterlimit: 4; fill: rgb(235,229,229); fill-rule: nonzero; opacity: 1;" vector-effect="non-scaling-stroke"  transform=" translate(-206, -255.78)" d="M 32.24 0 L 261.83 0 C 264.4172105422576 0.00021722707259075723 266.8809042564384 1.1065139613576196 268.59999999999997 3.040000000000002 L 409.22999999999996 139.31 C 410.98755271373244 141.00681848413515 411.9770838340551 143.3470234694238 411.96999999999997 145.79 L 411.99999999999994 145.79 L 411.99999999999994 479.32 C 411.99999999999994 488.15 408.36999999999995 496.2 402.5299999999999 502.06 L 402.4799999999999 502.11 C 396.6199999999999 507.94 388.5799999999999 511.56 379.7599999999999 511.56 L 32.24 511.56 C 23.370000000000005 511.56 15.3 507.93 9.46 502.09 C 3.63 496.26 0 488.19 0 479.32 L 0 32.24 C 0 23.37 3.63 15.3 9.46 9.46 C 15.3 3.63 23.37 0 32.24 0 z M 88.48 414.35 C 83.47 414.35 79.4 410.29 79.4 405.28000000000003 C 79.4 400.27000000000004 83.47 396.20000000000005 88.48 396.20000000000005 L 323.52 396.20000000000005 C 328.53 396.20000000000005 332.59 400.27000000000004 332.59 405.28000000000003 C 332.59 410.29 328.53 414.35 323.52 414.35 L 88.48 414.35 z M 88.48 340.13 C 83.47 340.13 79.4 336.07 79.4 331.06 C 79.4 326.05 83.47 321.98 88.48 321.98 L 319.86 321.98 C 324.87 321.98 328.94 326.05 328.94 331.06 C 328.94 336.07 324.87 340.13 319.86 340.13 L 88.48 340.13 z M 88.48 265.90999999999997 C 83.47 265.90999999999997 79.4 261.84 79.4 256.83 C 79.4 251.82 83.47 247.76 88.48 247.76 L 275.7 247.76 C 280.71 247.76 284.78 251.82 284.78 256.83 C 284.78 261.84 280.71 265.90999999999997 275.7 265.90999999999997 L 88.48 265.90999999999997 z M 88.48 191.67999999999995 C 83.47 191.67999999999995 79.4 187.61999999999995 79.4 182.60999999999996 C 79.4 177.59999999999997 83.47 173.52999999999994 88.48 173.52999999999994 L 202.93 173.52999999999994 C 207.94 173.52999999999994 212 177.59999999999994 212 182.60999999999996 C 212 187.61999999999998 207.94 191.67999999999995 202.93 191.67999999999995 L 88.48 191.67999999999995 z M 88.48 117.45999999999995 C 83.47 117.45999999999995 79.4 113.39999999999995 79.4 108.38999999999996 C 79.4 103.37525447153635 83.4652544715364 99.30999999999996 88.48 99.30999999999996 L 144.77 99.30999999999996 C 147.17816572774308 99.30999999999996 149.4876992568657 100.26664011051794 151.19052957317388 101.9694704268261 C 152.893359889482 103.67230074313426 153.85000000000002 105.98183427225689 153.85000000000002 108.38999999999996 C 153.85000000000002 113.39999999999996 149.78000000000003 117.45999999999995 144.77 117.45999999999995 L 88.48 117.45999999999995 z M 264.85 24.609999999999957 L 264.85 139.00999999999996 L 382.92 139.00999999999996 L 264.85 24.61 z M 393.85 157.15999999999997 L 255.78 157.15999999999997 C 250.77 157.15999999999997 246.7 153.08999999999997 246.7 148.07999999999996 L 246.7 18.15 L 32.24 18.15 C 28.380000000000003 18.15 24.85 19.74 22.290000000000003 22.299999999999997 C 19.740000000000002 24.849999999999998 18.150000000000002 28.379999999999995 18.150000000000002 32.239999999999995 L 18.150000000000002 479.32 C 18.150000000000002 483.18 19.740000000000002 486.71 22.290000000000003 489.26 C 24.85 491.82 28.380000000000003 493.40999999999997 32.24 493.40999999999997 L 379.76 493.40999999999997 C 383.65 493.40999999999997 387.17 491.83 389.7 489.29999999999995 L 389.74 489.25999999999993 C 392.27 486.72999999999996 393.85 483.2099999999999 393.85 479.31999999999994 L 393.85 157.16 z" stroke-linecap="round" />
</g>
</svg>